<?xml version="1.0" encoding="utf-8" ?>
<svg xmlns="http://www.w3.org/2000/svg" xmlns:xlink="http://www.w3.org/1999/xlink" width="1024" height="1024">
	<path fill="#3B0B0B" transform="scale(2 2)" d="M193.745 153.252C195.367 148.709 196.497 143.998 198.139 139.456C208.079 111.963 226.404 75.6175 258.781 71.8455C262.44 71.1974 267.249 72.2117 270.747 73.3136C297.91 81.8702 313.609 116.612 321.722 142.165C322.852 145.724 323.713 149.575 325.48 152.876L325.684 153.252C331.583 153.125 345.276 149.501 352.396 148.485C356.032 118.892 396.067 119.01 399.064 149.497C409.157 150.804 420.558 157.139 427.008 164.999C449.968 192.975 413.778 240.717 390.355 259.672C408.061 278.012 441.04 314.769 432.779 343.026C422.941 376.683 357.244 375.13 331.475 367.583C340.43 384.858 328.767 403.502 309.523 401.298C301.516 413.857 292.219 426.21 279.113 433.819C260.064 443.263 242.204 438.264 227.356 423.367C210.944 406.902 202.546 384.936 194.837 363.464C166.654 369.886 123.836 377.298 100.02 358.554C70.3588 335.209 96.5528 297.105 115.304 275.608C119.743 270.52 124.772 265.949 128.965 260.648C119.565 253.72 106.072 236.321 99.5814 226.358C85.1732 204.24 74.6469 174.782 101.629 157.801C126.875 141.912 166.07 146.872 193.745 153.252ZM223.339 104.152C222.446 104.912 221.683 105.709 220.906 106.583C218.685 109.587 216.351 113.2 214.874 116.647C210.761 122.529 203.756 140.135 201.117 147.25C195.251 166.994 185.541 196.803 186.976 216.533C188.828 215.553 190.6 214.427 192.187 213.051C193.415 209.62 193.463 205.913 193.903 202.321C196.187 183.674 199.934 165.303 205.168 147.25C209.839 138.395 212.444 128.028 218.141 117.527C220.258 114.137 222.451 110.793 224.617 107.434L226.287 105.187C268.992 55.0726 298.98 120.451 311.703 157.41C314.399 157.012 317.015 156.442 319.634 155.692C314.089 130.985 295.81 89.8493 271.65 80.1776C253.582 72.9443 229.82 87.8374 223.339 104.152ZM373.465 133.249C355.873 135.903 354.194 159.287 371.626 164.776C395.646 170.556 401.343 132.895 373.465 133.249ZM163.792 154.155C143.908 152.029 117.23 152.636 100.969 165.708C71.9185 189.062 113.332 237.833 133.309 257.135C135.313 255.321 137.314 253.507 139.271 251.642C122.72 237.264 88.5047 194.924 108.23 172.268C119.404 159.434 142.882 156.709 159.423 157.41C163.101 157.571 166.335 157.681 169.934 158.572C173.414 158.524 176.323 159.28 179.696 159.918C183.556 160.615 187.492 161.423 191.399 161.747C191.733 160.705 191.951 159.639 192.187 158.572C188.037 157.871 183.891 156.816 179.696 156.444C177.511 155.495 173.753 155.548 171.371 155.692C168.881 154.925 166.366 154.518 163.792 154.155ZM421.96 167.116C415.394 160.437 407.646 156.354 398.364 154.916C397.027 156.883 396.458 159.575 395.402 161.747C409.879 165.22 413.618 170.511 420.327 181.859C425.81 211.063 401.988 233.893 383.46 253.424C384.752 254.946 386.099 256.428 387.418 257.928C405.602 242.115 433.184 208.452 430.008 183.997C429.302 178.561 426.47 170.566 421.96 167.116ZM153.132 269.474C150.941 267.432 148.401 265.878 146.355 263.67C145.111 264.529 144.485 265.577 143.762 266.873C144.94 268.541 146.206 269.821 147.8 271.096C155.655 278.075 164.147 285.157 173.198 290.546L176.552 287.368C170.655 282.63 159 273.028 153.132 269.474ZM196.817 290.546C179.442 282.463 166.135 310.204 184.691 319.381C185.078 319.572 185.512 319.74 185.944 319.772C206.247 325.538 215.738 299.312 196.817 290.546ZM411.071 293.989C410.276 290.955 406.741 287.494 404.775 285.017C387.959 263.825 358.025 236.179 334.48 221.379C334.473 223.406 334.449 225.435 334.48 227.461C361.187 246.48 382.831 262.264 404.154 287.686C405.289 289.039 408.309 293.366 409.74 293.989C415.332 303.402 421.125 312.14 420.975 323.556C420.517 358.355 375.957 356.451 351.134 354.572C346.561 354.226 342.044 353.348 337.455 353.249C338.253 348.779 340.195 350.662 345.096 351.366C407.428 360.319 445.073 340.071 391.38 280.987C388.053 277.326 383.882 273.779 381.021 269.776L380.809 269.474C378.411 270.978 376.318 272.951 374.112 274.718C360.913 285.292 347.272 294.709 333.144 304.016C330.426 305.807 330.216 318.729 329.517 322.257C327.124 334.33 323.742 346.192 321.308 358.25C349.297 365.992 424.087 374.769 427.301 336.789C428.436 323.383 419.804 304.318 411.071 293.989ZM321.308 366.26C311.776 358.315 295.316 367.588 296.849 379.971C297.546 385.596 302.133 391.554 307.261 394.096C326.666 397.734 336.648 380.404 321.308 366.26ZM286.473 420.567C292.831 414.632 299.277 407.39 303.591 399.812C301.433 398.692 299.612 397.666 297.845 395.964L297.539 396.29C286.115 408.569 278.107 428.268 256.326 426.755C233.666 423.781 219.591 401.371 211.968 381.754C209.595 375.645 206.718 365.703 203.738 360.27C202.462 360.727 201.208 361.297 199.955 361.817C207.677 388.274 226.728 429.919 256.972 433.452C264.413 434.321 285.804 427.174 286.473 420.567ZM254.906 89.6264C231.802 91.8889 210.864 135.388 205.916 157.41C221.49 160.594 246.005 169.416 260.33 176.096C263.313 177.469 270.639 172.807 273.788 171.561C285.486 166.934 297.438 162.1 309.523 158.572C301.794 136.465 284.318 88.55 254.906 89.6264ZM351.548 153.252C333.811 155.507 281.554 168.848 265.501 178.848L269.585 180.493C270.784 180.959 271.979 181.447 273.199 181.859C296.763 173.773 314.886 165.993 340.302 160.432C344.966 159.412 349.637 158.693 354.244 157.41C353.793 156.06 353.401 152.889 351.548 153.252ZM205.168 159.918C204.335 162.17 203.867 164.104 203.738 166.507C216.164 170.132 228.502 173.71 240.559 178.449C243.568 179.632 246.561 181.019 249.686 181.859C251 181.498 252.168 181.086 253.397 180.493L256.326 178.848C239.315 170.089 222.12 166.791 205.168 159.918ZM149.172 161.747C135.978 163.044 119.129 164.527 110.038 175.453C92.6793 196.313 126.347 236.891 140.052 251.09L143.762 248.073C156.518 237.139 168.768 229.719 181.28 219.841C183.104 215.451 186.134 186.731 187.755 178.628C188.543 174.687 189.94 170.496 190.249 166.507C179.013 162.74 160.862 160.706 149.172 161.747ZM356.766 162.335C347.043 164.109 336.369 165.105 327.159 168.79C332.742 184.86 331.199 200.852 334.48 215.826C347.222 221.681 371.327 241.695 380.809 251.09C383.205 248.273 385.835 245.657 388.415 243.009C401.483 229.678 418.573 208.182 418.335 188.628C418.164 174.558 406.179 166.888 393.457 164.776C382.458 172.626 369.67 176.003 359.37 165.057C358.701 164.346 357.594 162.78 356.766 162.335ZM322.498 168.79L317.557 170.293C324.817 205.595 328.833 240.322 325.497 276.478C324.962 282.282 324.153 288.159 324.057 293.989C325.797 292.855 327.466 291.57 329.271 290.546C334.403 250.314 331.729 208.523 322.936 169.005L322.498 168.79ZM202.679 170.293C198.519 183.304 197.362 197.721 195.547 211.184C204.962 206.233 213.998 200.372 223.339 195.235C230.79 191.278 238.474 187.985 246.022 184.262C237.728 180.534 210.727 170.525 202.679 170.293ZM312.878 171.487L278.233 183.752C284.681 187.121 291.428 189.852 297.845 193.324C305.245 197.339 312.478 201.543 319.634 205.981C319.464 201.759 315.304 173.928 313.26 171.537L312.878 171.487ZM261.384 180.493C258.574 181.295 256.014 182.466 253.397 183.752C258.454 186.193 263.75 188.177 268.897 190.429C285.534 197.71 301.074 206.428 316.6 215.826C318.143 216.72 319.678 217.674 321.308 218.402C321.342 216.652 321.507 214.786 321.308 213.051C316.097 206.987 264.724 180.396 261.384 180.493ZM249.686 185.728C246.41 187.237 243.348 189.166 240.148 190.828C190.378 216.675 114.727 261.371 95.1196 314.444C87.3896 335.368 93.769 353.548 115.333 361.338C138.418 369.677 168.347 364.225 192.187 359.578L193.342 359.342C194.176 357.698 192.809 355.776 192.187 354.252C186.132 354.603 180.119 356.009 174.089 356.735C105.463 364.992 73.1503 334.712 127.652 275.881C161.204 239.663 212.847 208.985 257.566 189.148C255.056 187.757 252.534 186.297 249.686 185.728ZM261.384 191.781C249.183 197.034 204.283 219.135 194.837 228.225C193.557 241.379 192.466 270.111 195.547 283.43C205.424 286.84 212.142 293.485 212.883 304.089C227.242 311.895 241.332 319.614 256.326 326.228L258.781 327.338C280.351 319.536 299.521 307.055 319.634 296.345C321.157 276.342 322.928 258.861 322.395 238.402C322.27 233.623 322.437 228.347 321.308 223.679C300.511 210.814 283.002 202.04 261.384 191.781ZM335.75 234.234C335.375 238.151 335.623 242.023 335.705 245.945C336 259.906 334.071 274.166 334.48 287.368C340.78 282.348 347.829 278.215 354.244 273.3C359.77 269.292 364.843 264.502 370.435 260.648C361.81 253.352 345.914 238.905 335.75 234.234ZM189.16 234.234C188.03 234.775 186.975 235.31 185.944 236.034C184.975 241.153 184.343 279.646 186.294 283.335L186.976 283.43C188.45 283.416 189.925 283.385 191.399 283.43C191.494 278.966 189.913 234.938 189.58 234.332L189.16 234.234ZM180.508 237.212C171.108 242.931 157.43 253.499 149.172 260.648C154.177 264.509 159.397 268.759 163.792 273.3C168.502 275.372 177.29 284.792 181.009 285.207C182.087 284.304 180.41 251.539 180.497 247.515C180.568 244.231 181.18 240.441 180.508 237.212ZM373.465 263.67C368.525 265.714 363.851 270.622 359.518 273.866C322.089 301.884 281.02 323.935 237.244 340.425C227.172 344.219 216.553 348.322 205.916 350.174C206.398 352.127 207.183 353.606 208.23 355.327C208.603 355.319 209.496 355.191 209.805 355.327C214.799 353.269 220.125 352.103 225.269 350.478C272.239 335.646 340.373 301.638 377.572 266.873C376.292 265.473 375.295 264.342 373.465 263.67ZM139.271 271.096C134.665 273.653 131.237 277.923 127.853 281.883C89.9359 326.263 97.3929 355.119 158.438 354.252C169.747 353.293 180.466 351.185 191.399 350.174C189.398 342.184 188.296 334.339 186.976 326.228C172.907 323.097 163.573 309.226 169.934 295.234C162.754 291.131 140.803 271.71 139.271 271.096ZM327.159 307.999C324.919 309.153 322.562 310.353 320.563 311.899C318.649 324.054 316.335 335.168 313.322 347.085C313.751 347.614 313.919 347.549 314.552 347.726L319.634 348.808C320.129 341.503 328.621 310.718 327.159 307.999ZM212.883 309.819C212.421 311.002 211.909 312.183 211.526 313.393C221.303 319.084 236.863 328.059 247.102 331.87C248.268 331.836 249.456 331.744 250.617 331.87L251.841 331.482C252.631 329.307 242.942 325.987 241.398 325.253C231.663 320.623 222.033 315.522 212.883 309.819ZM316.6 314.286C303.025 320.707 290.405 328.485 276.307 334.835L285.424 338.326L301.143 343.522C304.121 344.477 307.316 345.253 310.207 346.426C310.95 343.184 317.327 315.518 316.6 314.286ZM208.23 318.748C206.024 321.131 204.019 322.899 201.117 324.375C202.276 331.092 203.185 340.038 205.168 346.426C211.407 345.428 221.426 341.978 227.436 339.787C231.82 338.286 236.411 336.928 240.549 334.835C232.234 331.82 215.484 323.527 208.23 318.748ZM195.547 326.228L192.187 326.228C192.494 328.967 195.024 346.695 196.336 347.921L197.314 347.726L201.117 347.726C199.666 342.86 198.648 337.695 197.923 332.673C197.61 330.507 198.217 325.667 195.547 326.228ZM267.753 338.326C266.963 338.553 265.946 338.722 265.336 339.281L265.526 339.238L265.611 339.672C275.436 345.614 304.284 353.993 315.621 356.903C316.892 357.01 317.575 356.52 317.125 355.228C315.145 353.435 311.738 353.074 309.279 352.236L289.824 345.464C285.043 343.787 272.338 337.745 267.753 338.326ZM258.781 342.793C246.088 347.287 233.535 352.378 220.58 356.093C217.035 357.109 213.07 357.848 209.805 359.578C210.175 364.024 211.988 368.352 213.511 372.517C220.75 392.321 234.651 421.862 258.781 424.48C275.427 424.025 287.478 406.778 295.637 394.096C285.27 380.738 288.085 367.635 302.054 358.503C288.05 354.216 271.779 349.287 258.781 342.793ZM201.117 351.802C199.625 352.089 198.227 352.699 196.817 353.249C196.873 355.829 196.643 358.524 199.955 358.25C201.179 357.679 202.404 357.155 203.738 356.903C203.522 355.194 203.712 351.281 201.117 351.802Z"/>
	<path fill="#3B0B0B" transform="scale(2 2)" d="M220.906 106.583C221.683 105.709 222.446 104.912 223.339 104.152C224.222 105.887 224.654 105.132 226.287 105.187L224.617 107.434C222.699 107.022 222.207 108.531 220.906 106.583Z"/>
	<path fill="#3B0B0B" transform="scale(2 2)" d="M214.874 116.647C216.351 113.2 218.685 109.587 220.906 106.583C222.207 108.531 222.699 107.022 224.617 107.434C222.451 110.793 220.258 114.137 218.141 117.527C212.444 128.028 209.839 138.395 205.168 147.25C203.807 147.072 202.505 147.511 201.117 147.25C203.756 140.135 210.761 122.529 214.874 116.647Z"/>
	<path fill="#3B0B0B" transform="scale(2 2)" d="M371.626 164.776C354.194 159.287 355.873 135.903 373.465 133.249C375.514 138.327 382.983 137.762 385.083 145.737C387.644 155.465 380.032 162.27 371.626 164.776Z"/>
	<path fill="#3B0B0B" transform="scale(2 2)" d="M201.117 147.25C202.505 147.511 203.807 147.072 205.168 147.25C199.934 165.303 196.187 183.674 193.903 202.321C193.463 205.913 193.415 209.62 192.187 213.051C190.6 214.427 188.828 215.553 186.976 216.533C185.541 196.803 195.251 166.994 201.117 147.25Z"/>
	<path fill="#3B0B0B" transform="scale(2 2)" d="M265.501 178.848C281.554 168.848 333.811 155.507 351.548 153.252C353.401 152.889 353.793 156.06 354.244 157.41C349.637 158.693 344.966 159.412 340.302 160.432C314.886 165.993 296.763 173.773 273.199 181.859C271.979 181.447 270.784 180.959 269.585 180.493L265.501 178.848Z"/>
	<path fill="#3B0B0B" transform="scale(2 2)" d="M163.792 154.155C166.366 154.518 168.881 154.925 171.371 155.692C171.229 157.845 167.272 157.81 170.803 157.975L171.133 158.202L169.934 158.572C166.335 157.681 163.101 157.571 159.423 157.41C162.137 156.982 164.669 157.894 163.792 154.155Z"/>
	<path fill="#3B0B0B" transform="scale(2 2)" d="M171.371 155.692C173.753 155.548 177.511 155.495 179.696 156.444C178.729 157.093 177.264 156.725 178.062 159.1L178.305 159.172C178.875 159.347 179.303 159.436 179.696 159.918C176.323 159.28 173.414 158.524 169.934 158.572L171.133 158.202L170.803 157.975C167.272 157.81 171.229 157.845 171.371 155.692Z"/>
	<path fill="#3B0B0B" transform="scale(2 2)" d="M179.696 156.444C183.891 156.816 188.037 157.871 192.187 158.572C191.951 159.639 191.733 160.705 191.399 161.747C187.492 161.423 183.556 160.615 179.696 159.918C179.303 159.436 178.875 159.347 178.305 159.172L178.062 159.1C177.264 156.725 178.729 157.093 179.696 156.444Z"/>
	<path fill="#3B0B0B" transform="scale(2 2)" d="M203.738 166.507C203.867 164.104 204.335 162.17 205.168 159.918C222.12 166.791 239.315 170.089 256.326 178.848L253.397 180.493C252.168 181.086 251 181.498 249.686 181.859C246.561 181.019 243.568 179.632 240.559 178.449C228.502 173.71 216.164 170.132 203.738 166.507Z"/>
	<path fill="#3B0B0B" transform="scale(2 2)" d="M421.96 167.116C426.47 170.566 429.302 178.561 430.008 183.997C433.184 208.452 405.602 242.115 387.418 257.928C386.099 256.428 384.752 254.946 383.46 253.424C401.988 233.893 425.81 211.063 420.327 181.859C421.881 177.058 422.2 172.124 421.96 167.116Z"/>
	<path fill="#3B0B0B" transform="scale(2 2)" d="M317.557 170.293L322.498 168.79L322.936 169.005C331.729 208.523 334.403 250.314 329.271 290.546C327.466 291.57 325.797 292.855 324.057 293.989C324.153 288.159 324.962 282.282 325.497 276.478C328.833 240.322 324.817 205.595 317.557 170.293Z"/>
	<path fill="#3B0B0B" transform="scale(2 2)" d="M253.397 183.752C256.014 182.466 258.574 181.295 261.384 180.493C264.724 180.396 316.097 206.987 321.308 213.051C321.507 214.786 321.342 216.652 321.308 218.402C319.678 217.674 318.143 216.72 316.6 215.826C301.074 206.428 285.534 197.71 268.897 190.429C263.75 188.177 258.454 186.193 253.397 183.752Z"/>
	<path fill="#3B0B0B" transform="scale(2 2)" d="M192.187 359.578C168.347 364.225 138.418 369.677 115.333 361.338C93.769 353.548 87.3896 335.368 95.1196 314.444C114.727 261.371 190.378 216.675 240.148 190.828C243.348 189.166 246.41 187.237 249.686 185.728C252.534 186.297 255.056 187.757 257.566 189.148C212.847 208.985 161.204 239.663 127.652 275.881C73.1503 334.712 105.463 364.992 174.089 356.735C180.119 356.009 186.132 354.603 192.187 354.252C192.809 355.776 194.176 357.698 193.342 359.342L192.187 359.578Z"/>
	<path fill="#3B0B0B" transform="scale(2 2)" d="M411.071 293.989L409.74 293.989C408.309 293.366 405.289 289.039 404.154 287.686C382.831 262.264 361.187 246.48 334.48 227.461C334.449 225.435 334.473 223.406 334.48 221.379C358.025 236.179 387.959 263.825 404.775 285.017C406.741 287.494 410.276 290.955 411.071 293.989Z"/>
	<path fill="#3B0B0B" transform="scale(2 2)" d="M247.102 231.782L247.016 231.825C250.902 227.629 255.771 225.567 261.384 224.87C272.293 223.773 280.466 231.967 283.879 241.576C301.917 245.666 305.073 268.376 288.928 279.235C286.618 293.626 271.498 304.225 257.566 296.345C256.167 295.576 254.779 294.79 253.397 293.989C224.441 302.128 206.927 274.239 226.287 255.864C220.135 241.044 232.648 231.184 247.102 231.782ZM250.617 241.576C243.052 235.685 233.052 238.763 231.801 249.121C231.133 254.652 235.829 251.318 240.549 250.244C239.182 255.097 236.085 259.991 235.672 265.021C234.516 270.49 234.204 275.717 237.41 280.599C240.666 285.557 246.361 291.447 249.686 283.43C251.63 283.055 254.35 283.866 256.104 284.681L256.326 284.98C259.214 296.583 282.871 295.503 282.489 274.86C297.767 269.475 296.98 249.046 278.233 247.172C275.507 229.539 256.537 225.421 250.617 241.576Z"/>
	<path fill="#3B0B0B" transform="scale(2 2)" d="M185.944 236.034C186.975 235.31 188.03 234.775 189.16 234.234L189.58 234.332C189.913 234.938 191.494 278.966 191.399 283.43C189.925 283.385 188.45 283.416 186.976 283.43L186.294 283.335C184.343 279.646 184.975 241.153 185.944 236.034Z"/>
	<path fill="#3B0B0B" transform="scale(2 2)" d="M240.549 250.244C245.985 240.081 259.503 238.392 268.967 243.718C290.007 255.561 280.177 287.624 256.326 284.98L256.104 284.681C254.35 283.866 251.63 283.055 249.686 283.43C239.772 280.231 239.218 271.621 235.672 265.021C236.085 259.991 239.182 255.097 240.549 250.244Z"/>
	<path fill="#3B0B0B" transform="scale(2 2)" d="M205.916 350.174C216.553 348.322 227.172 344.219 237.244 340.425C281.02 323.935 322.089 301.884 359.518 273.866C363.851 270.622 368.525 265.714 373.465 263.67C375.295 264.342 376.292 265.473 377.572 266.873C340.373 301.638 272.239 335.646 225.269 350.478C220.125 352.103 214.799 353.269 209.805 355.327C209.496 355.191 208.603 355.319 208.23 355.327C207.183 353.606 206.398 352.127 205.916 350.174Z"/>
	<path fill="#3B0B0B" transform="scale(2 2)" d="M153.132 269.474C151.488 270.806 149.464 269.853 147.8 271.096C146.206 269.821 144.94 268.541 143.762 266.873C144.485 265.577 145.111 264.529 146.355 263.67C148.401 265.878 150.941 267.432 153.132 269.474Z"/>
	<path fill="#3B0B0B" transform="scale(2 2)" d="M147.8 271.096C149.464 269.853 151.488 270.806 153.132 269.474C159 273.028 170.655 282.63 176.552 287.368L173.198 290.546C164.147 285.157 155.655 278.075 147.8 271.096Z"/>
	<path fill="#3B0B0B" transform="scale(2 2)" d="M185.944 319.772C185.512 319.74 185.078 319.572 184.691 319.381C166.135 310.204 179.442 282.463 196.817 290.546C199.648 296.088 201.638 301.285 199.587 307.493C196.589 316.573 191.952 316.066 185.944 319.772Z"/>
	<path fill="#3B0B0B" transform="scale(2 2)" d="M320.563 311.899C322.562 310.353 324.919 309.153 327.159 307.999C328.621 310.718 320.129 341.503 319.634 348.808L314.552 347.726C313.919 347.549 313.751 347.614 313.322 347.085C316.335 335.168 318.649 324.054 320.563 311.899Z"/>
	<path fill="#3B0B0B" transform="scale(2 2)" d="M211.526 313.393C211.909 312.183 212.421 311.002 212.883 309.819C222.033 315.522 231.663 320.623 241.398 325.253C242.942 325.987 252.631 329.307 251.841 331.482L250.617 331.87C249.456 331.744 248.268 331.836 247.102 331.87C236.863 328.059 221.303 319.084 211.526 313.393Z"/>
	<path fill="#3B0B0B" transform="scale(2 2)" d="M192.187 326.228L195.547 326.228C198.217 325.667 197.61 330.507 197.923 332.673C198.648 337.695 199.666 342.86 201.117 347.726L197.314 347.726L196.336 347.921C195.024 346.695 192.494 328.967 192.187 326.228Z"/>
	<path fill="#3B0B0B" transform="scale(2 2)" d="M315.621 356.903C304.284 353.993 275.436 345.614 265.611 339.672L265.526 339.238L265.336 339.281C265.946 338.722 266.963 338.553 267.753 338.326C272.338 337.745 285.043 343.787 289.824 345.464L309.279 352.236C311.738 353.074 315.145 353.435 317.125 355.228C317.575 356.52 316.892 357.01 315.621 356.903Z"/>
	<path fill="#3B0B0B" transform="scale(2 2)" d="M196.817 353.249C198.227 352.699 199.625 352.089 201.117 351.802C203.712 351.281 203.522 355.194 203.738 356.903C202.404 357.155 201.179 357.679 199.955 358.25C196.643 358.524 196.873 355.829 196.817 353.249Z"/>
	<path fill="#3B0B0B" transform="scale(2 2)" d="M256.326 426.755C263.27 432.727 280.17 424.605 286.473 420.567C285.804 427.174 264.413 434.321 256.972 433.452C226.728 429.919 207.677 388.274 199.955 361.817C201.208 361.297 202.462 360.727 203.738 360.27C206.718 365.703 209.595 375.645 211.968 381.754C219.591 401.371 233.666 423.781 256.326 426.755Z"/>
	<path fill="#3B0B0B" transform="scale(2 2)" d="M321.308 366.26L321.301 366.68C321.263 374.348 324.174 380.798 317.684 387.496C314.164 391.129 310.767 391.379 307.261 394.096C302.133 391.554 297.546 385.596 296.849 379.971C295.316 367.588 311.776 358.315 321.308 366.26Z"/>
</svg>
